<?xml version="1.0" encoding="utf-8"?>
<!-- Generator: Adobe Illustrator 16.0.0, SVG Export Plug-In . SVG Version: 6.00 Build 0)  -->
<!DOCTYPE svg PUBLIC "-//W3C//DTD SVG 1.1//EN" "http://www.w3.org/Graphics/SVG/1.1/DTD/svg11.dtd">
<svg version="1.1" id="Layer_1" xmlns="http://www.w3.org/2000/svg" xmlns:xlink="http://www.w3.org/1999/xlink" x="0px" y="0px"
	 width="12px" height="28px" viewBox="0 0 12 28" enable-background="new 0 0 12 28" xml:space="preserve">
<path d="M-74.091,7.461l-19.851-19.044l-19.85,19.044l-19.852,19.043h10.46v52.165h19.584V51.427c0-5.333,4.324-9.657,9.657-9.657
	s9.657,4.324,9.657,9.657v27.242h19.585V26.504h10.459L-74.091,7.461z"/>
<path d="M8.662,3.196c0,0-1.017-2.577-4.467-2.054c-3.451,0.523-3.562,5.15-1.318,8.75c2.243,3.6-0.203,9.721-1,10.455
	s-2.213,4.21,1.399,6.33C6.889,28.796,15.16,17.19,8.662,3.196z"/>
</svg>
